<svg version="1.2" xmlns="http://www.w3.org/2000/svg" xmlns:xlink="http://www.w3.org/1999/xlink" overflow="visible" preserveAspectRatio="none" viewBox="0 0 298 83" height="32" width="120"><g transform="translate(1, 1)"><desc>Created with Sketch.</desc><g fill-rule="evenodd" fill="none" stroke-width="1" stroke="none" id="Logo_1580245315628"><g transform="translate(-662.000000, -209.000000)" id="Logo---Clear-space_1580245315628"><g transform="translate(628.000000, 173.000000)" id="Clear-space_1580245315628"><g transform="translate(34.000100, 36.000300)" id="IL-Logos-/-Colour_1580245315628"><g><path fill="#FFFFFF" id="Fill-1_1580245315628" d="M17.6609319,63.7970577 L14.5888951,63.6075607 L14.8567417,58.011935 C14.8567417,58.011935 15.6657479,53.0868368 15.6657479,52.773438 C15.6657479,52.5019472 16.0611405,50.3883276 16.1759319,49.8198368 C16.1959748,49.7287325 16.2433491,49.6704258 16.2433491,49.6704258 L16.3672509,49.5574564 L16.8956558,49.2240147 L17.387619,49.0290515 L17.5370301,49.0090086 C17.5370301,49.0090086 17.5844043,49.0126528 17.6609319,49.0162969 C17.8176313,49.038162 18.0873,49.0837141 18.2676865,49.1729963 C18.5391773,49.3224074 18.914527,50.7090147 18.914527,50.7090147 L19.4793736,54.5226405 L19.7873061,59.1343399 L20.0679074,63.9537571 L17.6609319,63.7970577 Z M28.587981,66.0455117 L25.8275209,65.2729472 L24.346165,64.8720883 L24.2204411,63.8171006 C24.2204411,63.8171006 23.9052202,56.8312233 23.9398399,56.5852417 C23.9762816,56.3337939 22.9522693,49.1620638 22.9522693,49.1620638 L22.3819564,45.3010638 L22.8447663,40.3231252 L23.8487356,33.7235301 C23.7867847,33.5449656 23.877889,31.0614626 23.877889,31.0614626 C23.877889,31.0614626 23.7867847,27.0419411 23.7977172,26.8688429 C23.8068276,26.6957448 24.0345883,24.4454687 24.0345883,24.4454687 L25.1241957,21.5647509 L25.3719994,20.4368798 C25.3719994,20.4368798 25.3556006,20.3275546 25.3064043,20.2874687 C25.0531344,20.0906834 24.1493798,19.5240147 23.1599871,19.8611006 C22.5095025,20.081573 21.7606252,20.4295914 21.5838828,20.7448123 C21.4126067,21.058211 21.0008153,23.7603644 21.0008153,23.7603644 L20.7111037,27.5011067 L20.1790546,31.8322049 C20.1790546,31.8322049 19.9567601,33.1586834 19.9093859,33.3263153 C19.785484,33.7763706 19.1386436,33.5449656 19.1386436,33.5449656 C19.1386436,33.5449656 18.9910546,32.6721865 19.0238521,32.2913706 C19.0602939,31.9050883 19.2953429,29.8771067 19.2953429,29.8771067 C19.2953429,29.8771067 19.3117417,29.7914687 19.3080975,29.7459166 C19.2807663,29.4653153 19.1714411,28.419438 18.9910546,27.8381926 C18.8106681,27.2715239 18.2512877,27.0492294 17.6609319,26.9909227 C16.8318828,26.9052847 15.9408828,27.1330454 15.9408828,27.1330454 C15.3250178,27.2842785 15.0735699,27.6414074 14.8731405,27.9292969 C14.7455945,28.1133276 14.5834288,28.6581313 14.5925393,29.1100086 C14.5925393,29.1100086 14.8111896,31.6299534 14.9350914,32.0362785 C15.0845025,32.5227755 15.372392,33.446573 15.372392,33.446573 C15.372392,33.446573 15.4288767,34.379481 14.5961834,33.8893399 C14.5688521,33.8747632 14.5378767,33.8310331 14.5087233,33.807346 L13.6067908,32.025346 L13.5594166,31.8814012 L13.5193307,31.7247018 L13.1366926,29.3323031 L13.1093613,29.1245853 L13.123938,27.1057141 C13.187711,26.8615546 13.7197601,24.1521129 14.4194411,23.0588613 L15.2357356,21.947389 C15.4762509,21.6813644 17.0760423,19.8647448 17.6609319,18.9609902 C17.7575025,18.8134012 17.8267417,18.6840331 17.8558951,18.596573 C18.0672571,17.9679534 20.7949196,16.4647325 21.9118583,15.6247509 C23.030619,14.7847693 23.8833552,14.2964503 24.3771405,14.1561497 C24.8709258,14.0176712 25.7200178,13.7042724 26.042527,13.5749043 C26.3577479,13.4455362 26.9900117,13.2177755 27.0264534,13.1321374 C27.0647172,13.0519656 26.722165,12.9444626 26.722165,12.9444626 L24.5757479,12.6729718 C24.5757479,12.6729718 23.7448767,12.5326712 23.6082202,12.2903337 C23.4679196,12.0425301 22.1961037,11.3519595 21.9009258,11.1369534 C21.6021037,10.9237693 20.3430423,10.9492785 19.783662,11.1879718 C19.2297479,11.4175546 18.0927663,11.6690025 17.6609319,11.9477816 C17.6572877,11.9514258 17.6536436,11.9514258 17.6463552,11.956892 C17.2272755,12.2338491 16.0702509,12.9335301 15.7677847,13.059254 C15.4671405,13.1868 15.3651037,13.2687939 15.3651037,13.2687939 L15.0772141,12.9025546 C15.0772141,12.9025546 15.5309135,12.1081252 15.6220178,11.9240945 C15.7149442,11.7400638 16.4947969,9.95988589 16.4947969,9.95988589 C16.4947969,9.95988589 16.9120546,9.01786748 17.2272755,7.68956687 C17.5443184,6.36126626 16.1813982,4.85622331 15.1464534,4.22213742 C14.1115086,3.58258528 10.620392,3.89598405 9.86787055,4.00348712 C9.11717117,4.10734601 6.0524227,4.63392883 5.79186442,4.73960982 C5.52948405,4.8452908 1.90535521,5.94583067 1.71221411,6.00231534 C1.60106687,6.0332908 0.773839877,6.3302908 0.00127546012,6.62182454 L0.00127546012,11.4631067 C0.312852147,11.2608552 0.597097546,11.1041558 0.801171166,11.0385607 C0.841257055,11.022162 0.939649693,10.9674994 0.990668098,10.9529227 C1.59195644,10.7397387 2.60139202,10.6686773 2.98038589,10.6468123 C3.03869264,10.6449902 3.15712822,10.6777877 3.17352699,10.6777877 C3.31382761,10.6978307 4.22851472,11.0695362 4.3870362,11.6088736 C4.54373558,12.1500331 4.35606074,13.3416773 4.07545951,13.8135975 C3.79668037,14.2855178 2.64147791,15.2931313 2.02925706,15.5354687 C1.64297485,15.6921681 0.757441104,16.0347202 0.00127546012,16.348119 L0.00127546012,20.4678552 L0.713711043,20.0105117 C0.713711043,20.0105117 0.977913497,19.8374135 1.05079693,19.784573 C1.51360675,19.4511313 2.73258221,19.0557387 2.99860675,18.9974319 C3.24458834,18.9464135 3.99164356,18.6731006 4.32872945,18.6056834 C4.43258834,18.5856405 4.60022025,18.6257264 4.60022025,18.6257264 C4.60022025,18.6257264 5.93034294,19.0138307 5.93034294,20.0669963 C5.93034294,21.1128736 5.49122025,21.9564994 5.49122025,21.9564994 L5.41833681,22.1059104 L5.23066196,22.3227387 L3.71833067,23.4269227 C3.71833067,23.4269227 3.54887669,23.5234933 3.48692577,23.5635791 C3.18445951,23.7476098 2.40642883,24.0154564 2.04747791,24.1065607 C1.82518344,24.1648675 0.841257055,24.3634748 0.00127546012,24.5347509 L0.00127546012,29.308616 L4.71136748,28.311935 C4.71136748,28.311935 6.9944411,27.8728123 7.64856994,27.337119 C8.2990546,26.7941374 9.71481534,26.1400086 9.71481534,26.1400086 L9.80045337,30.7079779 L9.84782761,31.0122663 L10.7315393,34.2337141 C10.7315393,34.2337141 12.8415147,39.9295546 12.7413,41.359892 C12.635619,42.7975178 12.3058215,48.5061129 12.3058215,48.5061129 C12.3058215,48.5061129 11.0467601,54.9216773 11.0267172,55.6414012 C11.0103184,56.3538368 10.7752693,59.730162 10.7752693,59.730162 L10.7133184,61.3736834 L10.7114963,64.123211 C10.7114963,64.123211 9.40323865,64.780984 8.80741656,64.8720883 C8.21159448,64.9577264 4.52369264,66.7670577 3.93698098,67.2772417 C3.35209141,67.7746712 2.39549632,68.004254 2.46473558,68.2775669 C2.53397485,68.556346 2.88381534,69.234162 2.88381534,69.234162 C2.88381534,69.234162 2.28799325,70.0850761 2.73258221,70.4312724 C3.12250859,70.7319166 7.11287669,72.7015914 8.08222638,73.1680454 C8.21888282,73.2336405 8.35007301,73.2536834 8.35007301,73.2536834 L12.4133245,74.263119 L12.8925331,74.3086712 C12.8925331,74.3086712 13.2533061,74.3214258 13.4336926,74.3013828 C14.2171896,74.2084564 16.2706804,73.9624748 17.6609319,73.8221742 C18.1109871,73.7802663 18.4881589,73.7438245 18.7304963,73.7292479 C18.8653307,73.7201374 18.9783,73.6855178 19.0074534,73.6946282 C19.2898767,73.7729779 24.706938,71.7158429 25.6161589,71.4388859 C26.5272018,71.1601067 27.9958031,70.0377018 27.9958031,70.0377018 L31.304711,70.9997632 L31.6308644,71.1327755 C31.6308644,71.1327755 32.959165,71.7522847 34.0888583,72.3790822 L34.0888583,62.7274933 C33.4292632,63.1101313 32.7587356,63.4563276 32.5692387,63.5620086 C32.1665577,63.804346 28.587981,66.0455117 28.587981,66.0455117 L28.587981,66.0455117 Z" vector-effect="non-scaling-stroke"/><path fill="#5261AC" id="Fill-3_1580245315628" d="M4.07545951,13.8141442 C4.35423865,13.3422239 4.54373558,12.1524018 4.38521411,11.6075982 C4.22851472,11.0700828 3.31382761,10.6965552 3.17352699,10.6783344 C3.15530613,10.6783344 3.03869264,10.6455368 2.98038589,10.6473589 C2.60139202,10.6692239 1.59377853,10.7402853 0.992490184,10.9516472 C0.939649693,10.968046 0.841257055,11.0208865 0.79934908,11.0372853 C0.597097546,11.1028804 0.316496319,11.2614018 0.00127546012,11.4600092 L0.00127546012,16.3486656 C0.761085276,16.0334448 1.64479693,15.6927147 2.02743497,15.5341933 C2.63965583,15.2918558 3.79668037,14.2842423 4.07545951,13.8141442" vector-effect="non-scaling-stroke"/><path fill="#5261AC" id="Fill-5_1580245315628" d="M3.48637914,23.5633969 C3.54833006,23.523311 3.71778405,23.4267405 3.71778405,23.4267405 L5.23011534,22.3225564 L5.41961227,22.1057282 L5.49067362,21.9544951 C5.49067362,21.9544951 5.92979632,21.1108693 5.92979632,20.064992 C5.92979632,19.0136485 4.59967362,18.6255442 4.59967362,18.6255442 C4.59967362,18.6255442 4.4338638,18.5854583 4.32818282,18.6055012 C3.99109693,18.6729184 3.24404172,18.9444092 2.99806012,18.9990718 C2.73385767,19.0555564 1.51488221,19.4509491 1.05025031,19.7843908 C0.975544785,19.8390534 0.714986503,20.0085074 0.714986503,20.0085074 L0.000728834356,20.467673 L0.000728834356,24.5327466 C0.840710429,24.3632926 1.82463681,24.1646853 2.04693129,24.1082006 C2.40588221,24.0152742 3.18391288,23.7456055 3.48637914,23.5633969" vector-effect="non-scaling-stroke"/><path fill="#5261AC" id="Fill-7_1580245315628" d="M19.4811957,54.5219117 L18.9127049,50.710108 C18.9127049,50.710108 18.5355331,49.3216785 18.2676865,49.1722675 C18.0854779,49.0829853 17.8194534,49.0410773 17.662754,49.0155681 C17.5862264,49.0119239 17.535208,49.0082798 17.535208,49.0082798 L17.3894411,49.0283227 L16.8974779,49.2232859 L16.369073,49.5567276 L16.2451712,49.671519 C16.2451712,49.671519 16.1923307,49.7298258 16.1759319,49.819108 C16.0611405,50.3875988 15.6639258,52.5012184 15.6639258,52.7727092 C15.6639258,53.086108 14.8549196,58.0112061 14.8549196,58.0112061 L14.5888951,63.608654 L17.662754,63.7963288 L20.0679074,63.9530282 L19.7891282,59.133611 L19.4811957,54.5219117 Z" vector-effect="non-scaling-stroke"/><path fill="#5261AC" id="Fill-9_1580245315628" d="M31.3052577,70.9990344 L27.9963497,70.036973 C27.9963497,70.036973 26.5277485,71.1593779 25.6167055,71.4381571 C24.7074847,71.7151141 19.2886012,73.7722491 19.008,73.6938994 C18.9770245,73.684789 18.8658773,73.7194086 18.7310429,73.728519 C18.4887055,73.7430957 18.1115337,73.7795374 17.6614785,73.8214454 C16.271227,73.9653902 14.2159141,74.2077276 13.4324172,74.3024761 C13.2538528,74.3206969 12.8930798,74.3079423 12.8930798,74.3079423 L12.4138712,74.2623902 L8.34879755,73.2547767 C8.34879755,73.2547767 8.21942945,73.2347337 8.08459509,73.1673166 C7.11342331,72.7026847 3.12123313,70.7311877 2.73312883,70.4305436 C2.28853988,70.0861693 2.88253988,69.2334331 2.88253988,69.2334331 C2.88253988,69.2334331 2.53269939,68.5556172 2.46528221,68.2786601 C2.39422086,68.0035252 3.35263804,67.7757644 3.93570552,67.2765129 C4.52423926,66.7681509 8.2121411,64.9569975 8.8061411,64.8713595 C9.40196319,64.7802552 10.7102209,64.1224822 10.7102209,64.1224822 L10.7120429,61.3729546 L10.7739939,59.7312552 C10.7739939,59.7312552 11.010865,56.353108 11.0272638,55.6406724 C11.0473067,54.9209485 12.304546,48.505384 12.304546,48.505384 C12.304546,48.505384 12.6361656,42.796789 12.7418466,41.3591632 C12.8420613,39.9288258 10.7320859,34.2329853 10.7320859,34.2329853 L9.84837423,31.0115374 L9.79917791,30.7090712 L9.71536196,26.1392798 C9.71536196,26.1392798 8.29960123,26.7952307 7.64911656,27.3363902 C6.99680982,27.8720834 4.71009202,28.3130282 4.71009202,28.3130282 L5.32907052e-14,29.3078871 L5.32907052e-14,79.6830957 L34.0857607,79.6830957 L34.0857607,72.3783534 C32.9597117,71.7515558 31.629589,71.1320466 31.629589,71.1320466 L31.3052577,70.9990344 Z" vector-effect="non-scaling-stroke"/><path fill="#5261AC" id="Fill-11_1580245315628" d="M0.000546625767,2.48689958e-14 L0.000546625767,6.62146012 C0.774933129,6.32810429 1.60033804,6.03292638 1.71148528,6.00195092 C1.90644847,5.94728834 5.52875521,4.84492638 5.79113558,4.7392454 C6.05533804,4.63356442 9.11826442,4.10880368 9.86714172,4.00130061 C10.6233074,3.89561963 14.1126018,3.58222086 15.1457245,4.22359509 C16.1843135,4.85768098 17.5435896,6.36090184 17.2265466,7.68920245 C16.9131479,9.01750307 16.4958902,9.95952147 16.4958902,9.95952147 C16.4958902,9.95952147 15.7142153,11.7396994 15.6249331,11.9237301 C15.5283626,12.1077607 15.0764853,12.9021902 15.0764853,12.9021902 L15.3643748,13.2684294 C15.3643748,13.2684294 15.4682337,13.1864356 15.7652337,13.0588896 C16.0677,12.9331656 17.2265466,12.2334847 17.6474485,11.9547055 C17.6529147,11.9510613 17.6547368,11.9510613 17.658381,11.9474172 C18.0938595,11.6704601 19.229019,11.4190123 19.781111,11.1857853 C20.3423135,10.9489141 21.6013748,10.9234049 21.902019,11.138411 C22.1971969,11.3515951 23.4671908,12.0421656 23.6074914,12.2881472 C23.7459699,12.5323067 24.575019,12.6744294 24.575019,12.6744294 L26.7250804,12.9422761 C26.7250804,12.9422761 27.0639883,13.0516012 27.0257245,13.131773 C26.9911049,13.215589 26.3588411,13.4451718 26.0417982,13.576362 C25.721111,13.703908 24.8683748,14.0173067 24.3764117,14.1576074 C23.8826264,14.2960859 23.0298902,14.7844049 21.9111294,15.6243865 C20.7941908,16.462546 18.0665282,17.967589 17.8551663,18.5980307 C17.827835,18.6854908 17.7567736,18.8130368 17.658381,18.9606258 C17.0771356,19.8662025 15.4755221,21.681 15.2331847,21.9488466 L14.4187123,23.0566748 C13.7172092,24.1517485 13.1869822,26.8630123 13.1232092,27.1053497 L13.1068104,29.1242209 L13.1359638,29.3319387 L13.5186018,31.7261595 L13.5568656,31.8828589 L13.607884,32.0249816 L14.5079945,33.8069816 C14.5389699,33.8324908 14.5681233,33.8743988 14.5954546,33.8907975 C15.4299699,34.3772945 15.3716632,33.4462086 15.3716632,33.4462086 C15.3716632,33.4462086 15.0837736,32.522411 14.9343626,32.034092 C14.8104607,31.631411 14.5936325,29.1096442 14.5936325,29.1096442 C14.5845221,28.6577669 14.7448656,28.1129632 14.8742337,27.9289325 C15.071019,27.642865 15.3279331,27.2857362 15.940154,27.132681 C15.940154,27.132681 16.831154,26.9049202 17.658381,26.9905583 C18.252381,27.0506871 18.8135834,27.2693374 18.9921479,27.8378282 C19.1707123,28.4190736 19.2800374,29.466773 19.3073687,29.7455521 C19.3110129,29.7911043 19.2964362,29.8785644 19.2964362,29.8785644 C19.2964362,29.8785644 19.059565,31.906546 19.0231233,32.289184 C18.9921479,32.6718221 19.1379147,33.5446012 19.1379147,33.5446012 C19.1379147,33.5446012 19.7829331,33.7760061 19.9086571,33.327773 C19.9560313,33.158319 20.1801479,31.8336626 20.1801479,31.8336626 L20.7103748,27.5007423 L20.9982644,23.76 C20.9982644,23.76 21.4118779,21.0578466 21.5849761,20.7444479 C21.7580742,20.4310491 22.5087736,20.0812086 23.1592583,19.8625583 C24.150473,19.5254724 25.0542276,20.0921411 25.3056755,20.2889264 C25.3548718,20.3271902 25.3712706,20.4383374 25.3712706,20.4383374 L25.125289,21.5625644 L24.0320374,24.4469264 C24.0320374,24.4469264 23.8042767,26.6972025 23.7988104,26.8703006 C23.7878779,27.0433988 23.8771601,31.0629202 23.8771601,31.0629202 C23.8771601,31.0629202 23.7878779,33.5446012 23.8480067,33.7249877 L22.8440374,40.3209387 L22.3812276,45.3025215 L22.9533626,49.1598773 C22.9533626,49.1598773 23.9755528,56.3352515 23.9409331,56.5848773 C23.9044914,56.832681 24.2197123,63.8167362 24.2197123,63.8167362 L24.3472583,64.8717239 L25.8286141,65.2744049 L28.5854301,66.0469693 C28.5854301,66.0469693 32.1658288,63.8039816 32.572154,63.5616442 C32.7580067,63.4559632 33.4285344,63.111589 34.0899515,62.7253067 L34.0899515,2.48689958e-14 L0.000546625767,2.48689958e-14 Z" vector-effect="non-scaling-stroke"/><path fill="#000000" id="Fill-13_1580245315628" d="M144.530768,45.1624031 C143.17878,44.7834092 139.656688,43.7885503 135.970609,43.7885503 C126.936707,43.7885503 123.35813,48.9942497 123.409148,53.5075564 C123.543983,65.5715871 138.787553,62.197084 138.876836,70.0739613 C138.907811,72.5028018 137.125811,75.3416117 131.854517,75.3416117 C128.500056,75.3416117 125.531879,74.4906975 124.484179,74.0825503 L123.625977,78.7725994 C125.754173,79.7036853 130.981737,80.2448448 133.053449,80.2448448 C142.324222,80.2448448 146.580615,74.6401086 146.516842,68.8167221 C146.380185,56.7745564 130.963517,58.9136853 130.892455,52.6511761 C130.865124,50.3006853 132.776492,48.7300472 136.797836,48.7300472 C140.343615,48.7300472 142.655842,49.5117221 143.537731,49.7121515 L144.530768,45.1624031" vector-effect="non-scaling-stroke"/><path fill="#000000" id="Fill-15_1580245315628" d="M104.197621,51.1116957 L102.980468,51.1116957 C98.4780939,51.1116957 95.4771184,53.6790147 93.0628546,58.7608123 L93.0628546,79.6127632 L85.708916,79.6127632 L85.708916,45.1625853 C87.6694804,45.0878798 90.4007871,44.5576528 93.0628546,44.0675117 L93.0628546,52.2268123 C95.1254558,48.2929288 98.1610509,43.6192785 103.552603,43.6192785 C104.046388,43.6192785 104.614879,43.692162 105.245321,43.7632233 L104.197621,51.1116957" vector-effect="non-scaling-stroke"/><path fill="#000000" id="Fill-17_1580245315628" d="M174.314037,79.6129454 L174.314037,56.2920681 C174.314037,51.0426387 172.424534,49.4993319 169.203087,49.4993319 C165.992571,49.4993319 162.898669,51.8917307 160.030706,55.7472644 L160.030706,79.6129454 L152.676767,79.6129454 L152.676767,32.9055957 C154.704749,32.7671172 157.631019,32.4427859 160.030706,31.8159883 L160.030706,49.9931172 C163.530933,45.5873135 167.495792,43.7634055 171.655614,43.7634055 C175.855522,43.7634055 179.149853,45.789565 180.616633,49.1549577 C181.460258,50.9697552 181.675264,52.7226018 181.675264,56.437835 L181.675264,79.6129454 L174.314037,79.6129454" vector-effect="non-scaling-stroke"/><path fill="#000000" id="Fill-19_1580245315628" d="M68.2772025,79.6129454 L68.2772025,32.9055957 C70.6604908,32.6960558 73.8819387,32.1731172 76.2688712,31.3222031 L76.2688712,79.6129454 L68.2772025,79.6129454" vector-effect="non-scaling-stroke"/><path fill="#000000" id="Fill-21_1580245315628" d="M112.617663,38.3705779 C110.170601,38.3705779 108.208215,36.4045472 108.208215,34.0267252 C108.208215,31.5741975 110.170601,29.6136331 112.617663,29.6136331 C115.000951,29.6136331 116.96516,31.5741975 116.96516,34.0267252 C116.96516,36.4045472 115.000951,38.3705779 112.617663,38.3705779" vector-effect="non-scaling-stroke"/><path fill="#000000" id="Fill-23_1580245315628" d="M108.911175,79.6129454 L108.911175,45.1627675 L109.609034,45.088062 C111.777317,44.9586939 114.30455,44.5979209 116.263292,44.0676939 L116.263292,79.6129454 L108.911175,79.6129454" vector-effect="non-scaling-stroke"/><path fill="#000000" id="Fill-25_1580245315628" d="M201.068818,79.6129454 L201.068818,32.9055957 C203.45575,32.6960558 206.536898,32.0874791 209.058664,31.3222031 L209.058664,74.2195712 L223.533315,74.2195712 L223.533315,79.6129454 L201.068818,79.6129454" vector-effect="non-scaling-stroke"/><path fill="#000000" id="Fill-27_1580245315628" d="M265.601634,32.7895288 C264.342572,32.5781669 263.127241,32.4160012 262.141493,32.4160012 C257.589922,32.4160012 256.130431,34.9414123 256.130431,42.4994245 L256.130431,44.8098294 L264.111167,44.8098294 L263.413309,49.1536822 L256.130431,49.1536822 L256.130431,79.613492 L248.703609,79.613492 L248.703609,49.1536822 L242.883867,49.1536822 L243.58537,44.8098294 L248.703609,44.8098294 L248.703609,41.9400442 C248.703609,32.4160012 252.413376,28.0757926 260.536235,28.0757926 C262.640744,28.0757926 264.267867,28.2361362 266.514499,28.655216 L265.601634,32.7895288" vector-effect="non-scaling-stroke"/><path fill="#000000" id="Fill-29_1580245315628" d="M232.654677,38.3705779 C230.21126,38.3705779 228.247051,36.4045472 228.247051,34.0267252 C228.247051,31.5741975 230.21126,29.6136331 232.654677,29.6136331 C235.037965,29.6136331 236.996707,31.5741975 236.996707,34.0267252 C236.996707,36.4045472 235.037965,38.3705779 232.654677,38.3705779" vector-effect="non-scaling-stroke"/><path fill="#000000" id="Fill-31_1580245315628" d="M228.94819,79.6129454 L228.94819,45.1627675 L229.647871,45.088062 C232.297183,44.8839883 233.984435,44.4885957 236.293018,44.0676939 L236.293018,79.6129454 L228.94819,79.6129454" vector-effect="non-scaling-stroke"/><path fill="#000000" id="Fill-33_1580245315628" d="M281.535957,47.753227 C277.263166,47.753227 274.816104,51.5358773 274.533681,58.3213252 L287.907791,58.3213252 C287.769313,51.466638 285.526325,47.753227 281.535957,47.753227 L281.535957,47.753227 Z M274.533681,62.6706442 L274.533681,63.579865 C274.816104,71.6389509 277.899074,75.2102393 284.484092,75.2102393 C287.348411,75.2102393 289.52216,74.716454 293.507061,73.1075521 L294.982951,77.0960982 C290.22184,79.4720982 287.002215,80.3193681 282.36865,80.3193681 C271.939031,80.3193681 266.412644,73.805411 266.412644,61.5482393 C266.412644,50.3442331 272.011914,43.7628589 281.535957,43.7628589 C290.988939,43.7628589 295.897638,50.2021104 295.970521,62.6706442 L274.533681,62.6706442 Z" vector-effect="non-scaling-stroke"/></g></g></g></g></g></g></svg>