<svg version="1.2" xmlns="http://www.w3.org/2000/svg" xmlns:xlink="http://www.w3.org/1999/xlink" overflow="visible" preserveAspectRatio="none" viewBox="0 0 30 30" width="30" height="30"><g transform="translate(0, 0)"><g transform="translate(0, 0) rotate(0)"><path d="M23,14v3h-15v-3zM30,15c0,8.28 -6.72,15 -15,15c-8.28,0 -15,-6.72 -15,-15c0,-8.28 6.72,-15 15,-15c8.28,0 15,6.72 15,15zM27,15c0,-6.615 -5.385,-12 -12,-12c-6.615,0 -12,5.385 -12,12c0,6.615 5.385,12 12,12c6.615,0 12,-5.385 12,-12z" style="stroke: rgb(140, 140, 140); stroke-width: 0; stroke-linecap: butt; stroke-linejoin: miter; fill: rgb(80, 201, 181);" vector-effect="non-scaling-stroke"/></g><defs><path id="path-158996740169754387" d="M23,14v3h-15v-3zM30,15c0,8.28 -6.72,15 -15,15c-8.28,0 -15,-6.72 -15,-15c0,-8.28 6.72,-15 15,-15c8.28,0 15,6.72 15,15zM27,15c0,-6.615 -5.385,-12 -12,-12c-6.615,0 -12,5.385 -12,12c0,6.615 5.385,12 12,12c6.615,0 12,-5.385 12,-12z" vector-effect="non-scaling-stroke"/></defs><g style="transform: rotate(0deg) translate(-328px, -672px) translate(336px, 686px) rotate(0deg);"><defs><path id="path-158996740169754381" d="M0 0 C0 0 0 3 0 3 C0 3 15 3 15 3 C15 3 15 0 15 0 C15 0 0 0 0 0 Z" vector-effect="non-scaling-stroke"/></defs><g transform="translate(0, 0)" style="display: none;"><path d="M0 0 C0 0 0 3 0 3 C0 3 15 3 15 3 C15 3 15 0 15 0 C15 0 0 0 0 0 Z" style="stroke: rgb(140, 140, 140); stroke-width: 0; stroke-linecap: butt; stroke-linejoin: miter; fill: rgba(0, 0, 0, 0);" vector-effect="non-scaling-stroke"/></g></g><g style="transform: rotate(0deg) translate(-328px, -672px) translate(328px, 672px) rotate(0deg);"><defs><path id="path-158996740169754383" d="M15 0 C6.720000000000001 0 0 6.720000000000001 0 15 C0 23.28 6.720000000000001 30 15 30 C23.28 30 30 23.28 30 15 C30 6.720000000000001 23.28 0 15 0 Z" vector-effect="non-scaling-stroke"/></defs><g transform="translate(0, 0)" style="display: none;"><path d="M15 0 C6.720000000000001 0 0 6.720000000000001 0 15 C0 23.28 6.720000000000001 30 15 30 C23.28 30 30 23.28 30 15 C30 6.720000000000001 23.28 0 15 0 Z" style="stroke: rgb(140, 140, 140); stroke-width: 0; stroke-linecap: butt; stroke-linejoin: miter; fill: rgba(0, 0, 0, 0);" vector-effect="non-scaling-stroke"/></g></g><g style="transform: rotate(0deg) translate(-328px, -672px) translate(331px, 675px) rotate(0deg);"><defs><path id="path-158996740169754385" d="M12 24 C5.385 24 0 18.615000000000002 0 12 C0 5.385 5.385 0 12 0 C18.615000000000002 0 24 5.385 24 12 C24 18.615000000000002 18.615000000000002 24 12 24 Z" vector-effect="non-scaling-stroke"/></defs><g transform="translate(0, 0)" style="display: none;"><path d="M12 24 C5.385 24 0 18.615000000000002 0 12 C0 5.385 5.385 0 12 0 C18.615000000000002 0 24 5.385 24 12 C24 18.615000000000002 18.615000000000002 24 12 24 Z" style="stroke: rgb(140, 140, 140); stroke-width: 0; stroke-linecap: butt; stroke-linejoin: miter; fill: rgba(0, 0, 0, 0);" vector-effect="non-scaling-stroke"/></g></g></g></svg>