<svg version="1.2" xmlns="http://www.w3.org/2000/svg" xmlns:xlink="http://www.w3.org/1999/xlink" overflow="visible" preserveAspectRatio="none" viewBox="0 0 30 30" width="30" height="30"><g transform="translate(0, 0)"><defs><path id="path-1590687868830205" d="M15 0 C23.278725367409997 0 30 6.721274632590003 30 15 C30 23.278725367409997 23.278725367409997 30 15 30 C6.721274632590003 30 0 23.278725367409997 0 15 C0 6.721274632590003 6.721274632590003 0 15 0 Z" vector-effect="non-scaling-stroke"/><filter height="116.66666666666667%" id="filter-1590687869019892" width="113.33333333333333%" x="-6.666666666666667%" y="-3.3333333333333335%" vector-effect="non-scaling-stroke"><feFlood flood-opacity="0" result="backgroundFix" vector-effect="non-scaling-stroke"/><feColorMatrix in="SourceAlpha" result="hardAlpha" type="matrix" values="0 0 0 0 0 0 0 0 0 0 0 0 0 0 0 0 0 0 127 0" vector-effect="non-scaling-stroke"/><feOffset dx="0" dy="1" vector-effect="non-scaling-stroke"/><feGaussianBlur stdDeviation="1.1666666666666665" vector-effect="non-scaling-stroke"/><feColorMatrix in="" result="" type="matrix" values="0 0 0 0 0  0 0 0 0 0  0 0 0 0 0  0 0 0 0.2 0" vector-effect="non-scaling-stroke"/><feBlend in2="backgroundFix" mode="normal" result="shadowOuter_1" vector-effect="non-scaling-stroke"/></filter></defs><g transform="translate(0, 0)"><use xmlns:xlink="http://www.w3.org/1999/xlink" xlink:href="#path-1590687868830205" filter="url(#filter-1590687869019892)" vector-effect="non-scaling-stroke"/><path style="stroke: rgb(140, 140, 140); stroke-width: 0; stroke-linecap: butt; stroke-linejoin: miter; fill: rgb(80, 201, 181);" d="M15 0 C23.278725367409997 0 30 6.721274632590003 30 15 C30 23.278725367409997 23.278725367409997 30 15 30 C6.721274632590003 30 0 23.278725367409997 0 15 C0 6.721274632590003 6.721274632590003 0 15 0 Z" vector-effect="non-scaling-stroke"/></g></g></svg>