<svg version="1.2" xmlns="http://www.w3.org/2000/svg" xmlns:xlink="http://www.w3.org/1999/xlink" overflow="visible" preserveAspectRatio="none" viewBox="0 0 30 30" width="30" height="30"><g transform="translate(0, 0)"><g transform="translate(0, 0) rotate(0)"><path d="M17,14h6v3h-6v6h-3v-6h-6v-3h6v-6h3zM30,15c0,8.28 -6.72,15 -15,15c-8.28,0 -15,-6.72 -15,-15c0,-8.28 6.72,-15 15,-15c8.28,0 15,6.72 15,15zM27,15c0,-6.615 -5.385,-12 -12,-12c-6.615,0 -12,5.385 -12,12c0,6.615 5.385,12 12,12c6.615,0 12,-5.385 12,-12z" style="stroke: rgb(140, 140, 140); stroke-width: 0; stroke-linecap: butt; stroke-linejoin: miter; fill: rgb(80, 201, 181);" vector-effect="non-scaling-stroke"/></g><defs><path id="path-158991920157416007" d="M17,14h6v3h-6v6h-3v-6h-6v-3h6v-6h3zM30,15c0,8.28 -6.72,15 -15,15c-8.28,0 -15,-6.72 -15,-15c0,-8.28 6.72,-15 15,-15c8.28,0 15,6.72 15,15zM27,15c0,-6.615 -5.385,-12 -12,-12c-6.615,0 -12,5.385 -12,12c0,6.615 5.385,12 12,12c6.615,0 12,-5.385 12,-12z" vector-effect="non-scaling-stroke"/></defs><g style="transform: rotate(0deg) translate(-406px, -672px) translate(414px, 680px) rotate(0deg); pointer-events: all;"><defs><path id="path-158991920157416001" d="M9 0 C9 0 6 0 6 0 C6 0 6 6 6 6 C6 6 0 6 0 6 C0 6 0 9 0 9 C0 9 6 9 6 9 C6 9 6 15 6 15 C6 15 9 15 9 15 C9 15 9 9 9 9 C9 9 15 9 15 9 C15 9 15 6 15 6 C15 6 9 6 9 6 C9 6 9 0 9 0 Z" vector-effect="non-scaling-stroke"/></defs><g transform="translate(0, 0)" style="display: none;"><path d="M9 0 C9 0 6 0 6 0 C6 0 6 6 6 6 C6 6 0 6 0 6 C0 6 0 9 0 9 C0 9 6 9 6 9 C6 9 6 15 6 15 C6 15 9 15 9 15 C9 15 9 9 9 9 C9 9 15 9 15 9 C15 9 15 6 15 6 C15 6 9 6 9 6 C9 6 9 0 9 0 Z" style="stroke: rgb(140, 140, 140); stroke-width: 0; stroke-linecap: butt; stroke-linejoin: miter; fill: rgba(0, 0, 0, 0);" vector-effect="non-scaling-stroke"/></g></g><g style="transform: rotate(0deg) translate(-406px, -672px) translate(406px, 672px) rotate(0deg); pointer-events: all;"><defs><path id="path-158991920157416003" d="M15 0 C6.720000000000001 0 0 6.720000000000001 0 15 C0 23.28 6.720000000000001 30 15 30 C23.28 30 30 23.28 30 15 C30 6.720000000000001 23.28 0 15 0 Z" vector-effect="non-scaling-stroke"/></defs><g transform="translate(0, 0)" style="display: none;"><path d="M15 0 C6.720000000000001 0 0 6.720000000000001 0 15 C0 23.28 6.720000000000001 30 15 30 C23.28 30 30 23.28 30 15 C30 6.720000000000001 23.28 0 15 0 Z" style="stroke: rgb(140, 140, 140); stroke-width: 0; stroke-linecap: butt; stroke-linejoin: miter; fill: rgba(0, 0, 0, 0);" vector-effect="non-scaling-stroke"/></g></g><g style="transform: rotate(0deg) translate(-406px, -672px) translate(409px, 675px) rotate(0deg); pointer-events: all;"><defs><path id="path-158991920157416005" d="M12 24 C5.385 24 0 18.615000000000002 0 12 C0 5.385 5.385 0 12 0 C18.615000000000002 0 24 5.385 24 12 C24 18.615000000000002 18.615000000000002 24 12 24 Z" vector-effect="non-scaling-stroke"/></defs><g transform="translate(0, 0)" style="display: none;"><path d="M12 24 C5.385 24 0 18.615000000000002 0 12 C0 5.385 5.385 0 12 0 C18.615000000000002 0 24 5.385 24 12 C24 18.615000000000002 18.615000000000002 24 12 24 Z" style="stroke: rgb(140, 140, 140); stroke-width: 0; stroke-linecap: butt; stroke-linejoin: miter; fill: rgba(0, 0, 0, 0);" vector-effect="non-scaling-stroke"/></g></g></g></svg>