<svg version="1.2" xmlns="http://www.w3.org/2000/svg" xmlns:xlink="http://www.w3.org/1999/xlink" overflow="visible" preserveAspectRatio="none" viewBox="0 0 60 20" width="60" height="20"><g transform="translate(0, 0)"><defs><path id="path-15906951645711911" d="M0 9.999999999999998 C0 4.477152501999999 4.477152501999999 0 9.999999999999998 0 C9.999999999999998 0 49.999999999999865 0 49.999999999999865 0 C55.52284749799986 0 59.999999999999865 4.477152501999999 59.999999999999865 9.999999999999998 C59.999999999999865 9.999999999999998 59.999999999999865 9.999999999999998 59.999999999999865 9.999999999999998 C59.999999999999865 15.522847497999997 55.52284749799986 19.999999999999996 49.999999999999865 19.999999999999996 C49.999999999999865 19.999999999999996 9.999999999999998 19.999999999999996 9.999999999999998 19.999999999999996 C4.477152501999999 19.999999999999996 0 15.522847497999997 0 9.999999999999998 C0 9.999999999999998 0 9.999999999999998 0 9.999999999999998 Z" vector-effect="non-scaling-stroke"/></defs><g transform="translate(0, 0)"><path style="stroke: rgb(140, 140, 140); stroke-width: 0; stroke-linecap: butt; stroke-linejoin: miter; fill: rgba(80, 201, 181, 0.75);" d="M0 9.999999999999998 C0 4.477152501999999 4.477152501999999 0 9.999999999999998 0 C9.999999999999998 0 49.999999999999865 0 49.999999999999865 0 C55.52284749799986 0 59.999999999999865 4.477152501999999 59.999999999999865 9.999999999999998 C59.999999999999865 9.999999999999998 59.999999999999865 9.999999999999998 59.999999999999865 9.999999999999998 C59.999999999999865 15.522847497999997 55.52284749799986 19.999999999999996 49.999999999999865 19.999999999999996 C49.999999999999865 19.999999999999996 9.999999999999998 19.999999999999996 9.999999999999998 19.999999999999996 C4.477152501999999 19.999999999999996 0 15.522847497999997 0 9.999999999999998 C0 9.999999999999998 0 9.999999999999998 0 9.999999999999998 Z" vector-effect="non-scaling-stroke"/></g></g></svg>